<svg id="SvgjsSvg1006" width="288" height="288" xmlns="http://www.w3.org/2000/svg" version="1.1" xmlns:xlink="http://www.w3.org/1999/xlink" xmlns:svgjs="http://svgjs.com/svgjs"><defs id="SvgjsDefs1007"></defs><g id="SvgjsG1008"><svg xmlns="http://www.w3.org/2000/svg" width="288" height="288" fill="none" viewBox="0 0 1500 1164"><path stroke="#e5ced6" stroke-linecap="round" stroke-linejoin="round" stroke-width="3" d="M397.859 1072.15H1176.27" fill="#000000" class="color000 svgShape colorStrokeCED5E5 svgStroke"></path><path fill="#9e579d" d="M113.645 442.861C191.877 278.959 408.163 202.912 522.009 262.449C613.545 310.378 575.83 413.042 676.871 495.593C807.123 602.06 946.979 494.593 1107.34 570.44C1323.63 672.804 1408.06 1028.72 1330.23 1091.16C1260.1 1147.5 1117.55 917.556 790.916 878.432C512.605 845.111 398.959 985.998 249.8 895.442C121.849 817.894 33.9135 610.065 113.645 442.861Z" class="colorF2F2F2 svgShape"></path><path fill="#ffde83" d="M1351.89 284.263L1343.62 275.984 1314.61 304.994 1322.89 313.272 1351.89 284.263zM1157.32 118.21L1148.32 125.696 1174.54 157.24 1183.54 149.755 1157.32 118.21zM223.11 131.383L213.835 138.524 238.855 171.033 248.13 163.891 223.11 131.383zM551.529 116.5L540.598 120.686 555.266 159 566.197 154.813 551.529 116.5z" class="color4A6AD6 svgShape"></path><path fill="#f12e90" d="M114.246 167.69H102.541V208.715H114.246V167.69zM679.476 9.27687L672.336 0 639.835 25.0256 646.974 34.3024 679.476 9.27687zM787.327 461.272L780.187 451.996 747.686 477.021 754.825 486.298 787.327 461.272z" class="colorFFA26B svgShape"></path><path fill="#ffde83" d="M161.915 351.92L151.261 356.77L168.254 394.112L178.908 389.261L161.915 351.92Z" class="color4A6AD6 svgShape"></path><path fill="#f12e90" d="M377.039 154.013L366.473 148.975 348.824 186.009 359.39 191.047 377.039 154.013zM50.1989 484.193L39.6331 479.155 21.9837 516.189 32.5495 521.226 50.1989 484.193zM1448.61 203.74L1437.55 207.568 1450.96 246.337 1462.02 242.509 1448.61 203.74zM1478.11 456.371L1467.05 460.199 1480.46 498.968 1491.52 495.14 1478.11 456.371zM1112.21 13.6296L1100.52 13.1907 1098.98 54.1875 1110.68 54.6264 1112.21 13.6296z" class="colorFFA26B svgShape"></path><path fill="#ffde83" d="M11.0044 269.453C17.082 269.453 22.0088 264.525 22.0088 258.446C22.0088 252.367 17.082 247.439 11.0044 247.439C4.92684 247.439 0 252.367 0 258.446C0 264.525 4.92684 269.453 11.0044 269.453Z" class="color4A6AD6 svgShape"></path><path fill="#f12e90" d="M1270.11 188.203C1274.86 188.203 1278.71 184.35 1278.71 179.597 1278.71 174.845 1274.86 170.992 1270.11 170.992 1265.36 170.992 1261.5 174.845 1261.5 179.597 1261.5 184.35 1265.36 188.203 1270.11 188.203zM802.321 82.4368C807.072 82.4368 810.924 78.584 810.924 73.8314 810.924 69.0788 807.072 65.2261 802.321 65.2261 797.569 65.2261 793.717 69.0788 793.717 73.8314 793.717 78.584 797.569 82.4368 802.321 82.4368zM1491.4 86.139C1496.15 86.139 1500 82.2863 1500 77.5337 1500 72.7811 1496.15 68.9283 1491.4 68.9283 1486.65 68.9283 1482.79 72.7811 1482.79 77.5337 1482.79 82.2863 1486.65 86.139 1491.4 86.139z" class="colorFFA26B svgShape"></path><path fill="#ffde83" d="M1321.03 69.0284C1327.82 69.0284 1333.33 63.5181 1333.33 56.7207 1333.33 49.9234 1327.82 44.4131 1321.03 44.4131 1314.23 44.4131 1308.72 49.9234 1308.72 56.7207 1308.72 63.5181 1314.23 69.0284 1321.03 69.0284zM995.598 117.859C1002.39 117.859 1007.9 112.348 1007.9 105.551 1007.9 98.7537 1002.39 93.2434 995.598 93.2434 988.802 93.2434 983.293 98.7537 983.293 105.551 983.293 112.348 988.802 117.859 995.598 117.859zM1295.52 434.255C1302.31 434.255 1307.82 428.745 1307.82 421.948 1307.82 415.15 1302.31 409.64 1295.52 409.64 1288.72 409.64 1283.21 415.15 1283.21 421.948 1283.21 428.745 1288.72 434.255 1295.52 434.255zM276.511 44.4131C282.312 44.4131 287.015 39.7092 287.015 33.9066 287.015 28.104 282.312 23.4 276.511 23.4 270.709 23.4 266.006 28.104 266.006 33.9066 266.006 39.7092 270.709 44.4131 276.511 44.4131zM697.579 96.6455C703.38 96.6455 708.083 91.9416 708.083 86.139 708.083 80.3364 703.38 75.6324 697.579 75.6324 691.778 75.6324 687.075 80.3364 687.075 86.139 687.075 91.9416 691.778 96.6455 697.579 96.6455zM720.989 401.235C726.79 401.235 731.493 396.531 731.493 390.728 731.493 384.926 726.79 380.222 720.989 380.222 715.187 380.222 710.484 384.926 710.484 390.728 710.484 396.531 715.187 401.235 720.989 401.235z" class="color4A6AD6 svgShape"></path><path fill="#f12e90" d="M230.892 274.256C236.694 274.256 241.397 269.552 241.397 263.749 241.397 257.947 236.694 253.243 230.892 253.243 225.091 253.243 220.388 257.947 220.388 263.749 220.388 269.552 225.091 274.256 230.892 274.256zM238.596 510.703C244.397 510.703 249.1 505.999 249.1 500.196 249.1 494.394 244.397 489.69 238.596 489.69 232.794 489.69 228.091 494.394 228.091 500.196 228.091 505.999 232.794 510.703 238.596 510.703z" class="colorFFA26B svgShape"></path><path fill="#303a52" d="M954 1071C954 1071 961.962 1044.22 1019.18 1024.82C1019.18 1024.82 1034.48 1034.01 1053.14 1023.1L1055.4 1061.8L954 1071Z" class="color1A051D svgShape"></path><path fill="#ffd7e5" d="M1019.18 1024.82L1018.32 990.459L1051.34 992.379L1053.14 1023.1C1034.56 1034.01 1019.18 1024.82 1019.18 1024.82Z" class="colorFFDFD7 svgShape"></path><path fill="#303a52" d="M1334 858.684C1334 858.684 1312.38 852.419 1289.04 782.085C1289.04 782.085 1293.8 761.066 1282.71 738.834L1311.99 730.143L1334 858.684Z" class="color1A051D svgShape"></path><path fill="#ffd7e5" d="M1288.96 782.085L1262.81 788.351L1259.37 745.807L1282.64 738.935C1293.72 761.167 1288.96 782.085 1288.96 782.085Z" class="colorFFDFD7 svgShape"></path><path fill="#303a52" d="M1028.94 611.505C1028.94 611.505 991.625 746.11 984.99 791.989C978.355 837.867 1009.35 1005.72 1009.35 1005.72L1059.77 996.523L1038.54 807.45L1081.94 668.197L1097.24 616.558L1028.94 611.505Z" class="color1A051D svgShape"></path><path fill="#303a52" d="M1118.52 617.973L1153.49 752.072L1262.38 738.329L1274.79 808.764C1274.79 808.764 1137.64 839.686 1122.97 836.251C1108.37 832.815 1073.71 709.629 1068.95 681.031C1064.11 652.432 1078.78 615.042 1078.78 615.042L1118.52 617.973Z" class="color1A051D svgShape"></path><path fill="#ffd7e5" d="M977.486 319.453L873.686 272.053 814.486 169.253C814.486 169.253 820.286 148.853 820.786 137.453 821.286 126.053 810.686 96.753 802.186 86.753 793.686 76.753 795.086 169.653 795.086 169.653 795.086 169.653 827.286 272.953 834.386 285.253 841.486 297.553 966.586 358.753 966.586 358.753L977.486 319.453zM1367.29 507.553L1258.79 458.753 1167.59 390.153 1138.19 418.453C1138.19 418.453 1234.79 484.253 1247.39 490.753 1258.79 496.653 1356.59 524.353 1356.59 524.353 1356.59 524.353 1379.99 542.053 1397.59 565.953 1412.29 585.953 1424.79 555.753 1408.09 535.053 1387.69 509.553 1367.29 507.553 1367.29 507.553z" class="colorFFDFD7 svgShape"></path><path fill="#f12e90" d="M1004.09 635.458C1002.39 635.354 1017.09 413.561 1043.19 342.848C1069.29 272.136 1087.99 301.002 1094.79 313.463C1101.59 325.819 1136.19 515.424 1142.39 622.479C1142.49 622.479 1081.19 642.519 1004.09 635.458Z" class="colorFFA26B svgShape"></path><path fill="#f12e90" d="M1095.69 314.853L1185.89 390.653C1185.89 390.653 1167.39 408.753 1155.29 453.053L1090.69 382.353 1095.69 314.853zM972.086 300.353C972.086 300.353 958.786 326.153 947.386 367.853L1035.29 378.653 1068.19 311.753 972.086 300.353z" class="colorFFA26B svgShape"></path><path fill="#ffd7e5" d="M1061.08 307L1064.26 269.282L1082.1 262.52L1087.8 303.302L1061.08 307Z" class="colorFFDFD7 svgShape"></path><path fill="#ffd7e5" d="M1042.75 174.512C1042.75 174.512 1032.63 235.051 1035.52 261.358C1038.41 287.666 1076.32 270.867 1087.31 263.894C1098.31 256.921 1121.17 230.614 1113.93 192.262C1106.7 153.91 1054.33 144.401 1042.75 174.512Z" class="colorFFDFD7 svgShape"></path><path fill="#303a52" d="M1042.75 174.512C1042.75 174.512 1030.31 165.003 1039.38 149.261C1048.54 133.519 1058.38 133.836 1067.16 140.175C1067.16 140.175 1069.08 133.202 1082.68 128.236C1096.96 123.059 1105.83 135.104 1106.12 146.514C1106.12 146.514 1119.04 143.133 1128.11 156.551C1139.3 173.033 1129.27 189.092 1129.27 189.092C1129.27 189.092 1143.64 194.375 1144.89 212.441C1146.24 230.508 1134.48 238.115 1128.4 239.594C1128.4 239.594 1146.63 268.754 1117.5 275.621C1088.37 282.383 1066.48 270.972 1070.34 248.152C1070.34 248.152 1070.63 236.635 1077.86 229.768C1077.86 229.768 1066.58 217.407 1076.32 202.404C1076.32 202.404 1066.29 193.635 1067.83 178.421C1067.83 178.527 1052.98 183.07 1042.75 174.512Z" class="color1A051D svgShape"></path><path fill="#f12e90" d="M557 1071C557 1071 547.874 1044.43 482.288 1025.19C482.288 1025.19 464.751 1034.31 443.367 1023.48L440.772 1061.88L557 1071Z" class="colorF2C94C svgShape"></path><path fill="#ffd7e5" d="M482.288 1025.08L483.273 991L445.425 992.904L443.367 1023.38C464.662 1034.31 482.288 1025.08 482.288 1025.08Z" class="colorFFDFD7 svgShape"></path><path fill="#f12e90" d="M244.733 1061.19C244.733 1061.19 256.364 1036.83 227.464 970.567C227.464 970.567 210.374 961.946 203.842 937.384L177 959.54L244.733 1061.19Z" class="colorF2C94C svgShape"></path><path fill="#ffd7e5" d="M227.374 970.668L250.369 949.916L225.138 919.941L203.753 937.585C210.285 961.946 227.374 970.668 227.374 970.668Z" class="colorFFDFD7 svgShape"></path><path fill="#303a52" d="M388.877 644.15L340.113 824.502L250.459 965.756L210.643 908.612L286.965 780.792L317 611L388.877 617.382V644.15Z" class="color1A051D svgShape"></path><path fill="#303a52" d="M431.33 621.041C431.33 621.041 482.022 774.199 489.085 806.877C496.148 839.554 489.085 996.089 489.085 996.089C489.085 996.089 449.569 996.089 431.33 989.335L426.234 808.565L365.261 670.604L342.5 613.53L431.33 621.041Z" class="color1A051D svgShape"></path><path fill="#ffde83" d="M363.753 288.934C397.7 274.774 417.754 301.509 428.622 326.658C439.377 351.807 461 621.05 461 621.05C461 621.05 413.833 624.114 360.056 624.96C306.278 625.805 286 613.019 286 613.019L304.374 439.934C304.15 439.934 329.806 303.094 363.753 288.934Z" class="color4A6AD6 svgShape"></path><path fill="#ffd7e5" d="M307.257 421.205C307.257 421.205 281.729 475.924 279.812 487.607 277.894 499.29 274.06 646.873 274.06 646.873 274.06 646.873 258.016 678.526 264.575 708.382 271.033 738.238 295.855 708.382 296.561 688.012 297.268 667.642 294.241 644.276 294.241 644.276 294.241 644.276 304.936 521.058 308.569 507.078 312.201 493.099 349.536 438.679 349.536 438.679L307.257 421.205zM630.349 85.6978C625.203 107.166 626.414 120.946 626.414 120.946 626.414 120.946 551.14 231.184 541.05 241.569 530.959 251.953 471.225 281.011 471.225 281.011L499.377 316.858C499.377 316.858 548.92 281.809 556.488 272.623 563.955 263.436 641.145 137.022 641.145 137.022 641.145 137.022 654.061 128.335 662.436 74.015 662.436 74.015 665.463 43.8594 657.492 41.1633 649.319 38.4673 634.183 69.8212 630.349 85.6978z" class="colorFFDFD7 svgShape"></path><path fill="#ffde83" d="M338.281 322.649L284.702 418.209 352.508 448.764 380.559 385.657 338.281 322.649zM400.895 300.682L479.398 262.038C479.398 262.038 500.285 302.779 515.521 320.353L423.8 384.059 400.895 300.682z" class="color4A6AD6 svgShape"></path><path fill="#ffd7e5" d="M396.169 172.203C396.169 172.203 417.775 222.868 416.979 236.437C416.183 250.006 406.403 260.939 372.63 256.156C338.857 251.373 306.107 193.094 335.445 166.931C364.897 140.769 389.119 154.631 396.169 172.203Z" class="colorFFDFD7 svgShape"></path><path fill="#ffd7e5" d="M362.282 282.318L370.924 252.056L392.644 255.765L404.243 293.252C404.243 293.252 394.804 301.159 376.951 298.425C358.984 295.594 362.282 282.318 362.282 282.318Z" class="colorFFDFD7 svgShape"></path><path fill="#303a52" d="M354.208 248.444C354.208 248.444 322.027 234.192 312.02 209.103C302.013 184.015 306.789 156.096 327.94 145.357C348.977 134.522 390.028 134.522 413.681 119C413.681 119 422.437 148.481 408.905 164.1C408.791 164.198 408.677 164.296 408.677 164.393C402.423 171.52 393.44 176.498 383.433 178.743L360.349 183.722L376.837 216.132L361.941 222.477C361.941 222.477 359.78 204.417 348.75 201.879C337.72 199.341 331.011 204.417 335.445 217.401C339.88 230.384 353.526 234.192 353.526 234.192L354.208 248.444Z" class="color1A051D svgShape"></path><path fill="#e0e0e0" d="M771.866 1071H740.215C715.823 1071 696 1050.53 696 1025.16V975H816V1025.16C816.081 1050.53 796.258 1071 771.866 1071Z" class="colorE0E0E0 svgShape"></path><path fill="#ffde83" d="M740.702 896.237C740.702 896.237 714.078 865.049 705.807 828.273 697.536 791.497 712.502 788.325 725.499 795.65 733.297 800.03 753.698 835.749 758.346 917.835L740.702 896.237zM765.908 919.269C765.908 919.269 775.518 880.001 800.96 851.381 826.403 822.761 838.06 832.2 839.951 846.548 841.054 855.157 823.882 892.386 758.661 945.775L765.908 919.269zM764.254 834.843C764.254 834.843 771.658 804.788 791.114 782.813 810.649 760.838 819.55 768.163 820.967 779.113 821.834 785.682 808.679 814.227 758.661 855.157L764.254 834.843zM752.753 766.803C752.753 766.803 745.349 736.748 725.893 714.773 706.358 692.798 697.457 700.123 696.04 711.073 695.173 717.643 708.327 746.188 758.346 787.117L752.753 766.803zM774.494 747.094C774.494 747.094 798.282 726.252 808.837 699.217 819.313 672.183 808.364 668.256 797.652 672.409 791.272 674.901 771.658 699.821 758.661 761.593L774.494 747.094z" class="color00C48C svgShape"></path><path stroke="#9e579d" stroke-linecap="round" stroke-linejoin="round" stroke-width="3" d="M758.267 975V741.883" fill="#000000" class="color000 svgShape colorStroke7DDFC3 svgStroke"></path></svg></g></svg>